Coordinates
version=1
nRows=13
nColumns=40
inDegrees=yes

Units are S.I. units (second, meters, Newtons, ...)
If the header above contains a line with 'inDegrees', this indicates whether rotational values are in degrees (yes) or radians (no).

endheader
time	pelvis_tilt	pelvis_list	pelvis_rotation	pelvis_tx	pelvis_ty	pelvis_tz	hip_flexion_r	hip_adduction_r	hip_rotation_r	knee_angle_r	knee_angle_r_beta	ankle_angle_r	subtalar_angle_r	mtp_angle_r	hip_flexion_l	hip_adduction_l	hip_rotation_l	knee_angle_l	knee_angle_l_beta	ankle_angle_l	subtalar_angle_l	mtp_angle_l	lumbar_extension	lumbar_bending	lumbar_rotation	arm_flex_r	arm_add_r	arm_rot_r	elbow_flex_r	pro_sup_r	wrist_flex_r	wrist_dev_r	arm_flex_l	arm_add_l	arm_rot_l	elbow_flex_l	pro_sup_l	wrist_flex_l	wrist_dev_l
      3.67000000	      3.31391231	      4.73621092	    -86.90467766	      0.28276373	      0.86882357	      1.11539755	     -7.85337533	     -8.01827473	    -15.46144424	     31.53777977	      0.55043810	    -19.78830045	      0.00000000	      0.00000000	     15.70503579	      6.80118556	     -3.83381228	      9.96833937	      0.17398034	     -6.24138117	      0.00000000	      0.00000000	      1.44784211	     -3.67496317	      0.80862079	     -3.42181277	     -5.77198335	      5.44181366	     34.05005681	     89.03453423	    -24.52712153	      3.92927151	     -5.63891117	     -9.10612321	      6.51037711	     37.44419628	     89.24328048	    -21.38424478	      0.24818566
      3.68000000	      3.27322659	      4.79463323	    -86.80728300	      0.28414239	      0.86916364	      1.11962779	     -7.66969712	     -8.09795299	    -15.35283606	     32.07132528	      0.55975022	    -20.16534226	      0.00000000	      0.00000000	     15.42336345	      6.86459230	     -3.94780867	      9.92419411	      0.17320986	     -6.09363398	      0.00000000	      0.00000000	      1.53577599	     -3.59014581	      0.48954763	     -3.13435712	     -5.72800280	      5.40211795	     34.41974114	     89.03881417	    -24.52604112	      3.88784686	     -5.52997800	     -9.20429497	      6.66575435	     37.36452977	     89.26055897	    -21.38065185	      0.28832090
      3.69000000	      3.26515298	      4.88744643	    -86.86358069	      0.28556334	      0.86941087	      1.12286486	     -7.11086822	     -8.41162435	    -15.42094337	     33.09753641	      0.57766098	    -21.04129292	      0.00000000	      0.00000000	     15.28139766	      6.95361398	     -3.86207132	      9.94612317	      0.17359260	     -5.81937685	      0.00000000	      0.00000000	      1.46922769	     -3.52694206	      0.61084929	     -2.92748935	     -5.79818440	      5.26935719	     35.03969996	     89.03890978	    -24.50950888	      3.89730399	     -5.09081109	     -9.26158363	      7.08243002	     37.35901926	     89.24232580	    -21.39330250	      0.39357374
      3.70000000	      3.20684730	      4.98301456	    -86.80998968	      0.28689228	      0.86964221	      1.12646777	     -6.71467669	     -8.54497809	    -15.38252485	     33.86311592	      0.59102287	    -21.58979605	      0.00000000	      0.00000000	     15.07514513	      6.99495909	     -3.90446545	      9.87176936	      0.17229488	     -5.62681421	      0.00000000	      0.00000000	      1.51045191	     -3.41953230	      0.45311926	     -2.68073808	     -5.79161754	      5.17544487	     35.56315919	     89.04620296	    -24.48378891	      3.89401534	     -4.82796732	     -9.34704288	      7.36869240	     37.31947817	     89.24531327	    -21.40557635	      0.47535056
      3.71000000	      3.14921098	      5.07027075	    -86.73007132	      0.28831449	      0.86988646	      1.12993825	     -6.32597391	     -8.66239753	    -15.32812225	     34.60143072	      0.60390889	    -22.13088066	      0.00000000	      0.00000000	     14.86217347	      7.05400868	     -3.90280533	      9.78150270	      0.17071943	     -5.44129662	      0.00000000	      0.00000000	      1.51884669	     -3.30762478	      0.27640223	     -2.42420591	     -5.79898586	      5.12161234	     36.09377566	     89.05223025	    -24.44987348	      3.87394864	     -4.57212536	     -9.40556571	      7.60618246	     37.31373476	     89.24496200	    -21.41502899	      0.54193069
      3.72000000	      3.10135403	      5.18282611	    -86.70745599	      0.28959633	      0.87004732	      1.13331118	     -5.84436176	     -8.82143471	    -15.29736089	     35.42182647	      0.61822750	    -22.78970363	      0.00000000	      0.00000000	     14.68753789	      7.10615728	     -3.77924382	      9.71544499	      0.16956650	     -5.24803734	      0.00000000	      0.00000000	      1.57089549	     -3.21872880	      0.21408646	     -2.25110111	     -5.81526677	      5.02433803	     36.71720594	     89.05367138	    -24.38957029	      3.88475621	     -4.27672147	     -9.46959130	      7.90469905	     37.32167548	     89.24273353	    -21.43962667	      0.64158652
      3.73000000	      3.02643666	      5.28345356	    -86.62634565	      0.29075548	      0.87020650	      1.13670487	     -5.44730178	     -8.90368739	    -15.28036277	     36.12615184	      0.63052030	    -23.31833180	      0.00000000	      0.00000000	     14.48121864	      7.12262564	     -3.71031355	      9.60086073	      0.16756663	     -5.07553107	      0.00000000	      0.00000000	      1.62548097	     -3.12043048	      0.06297284	     -2.04524171	     -5.77693356	      4.97318846	     37.28102661	     89.06199641	    -24.32554521	      3.87443690	     -4.04811138	     -9.55788461	      8.11971227	     37.35486959	     89.23696841	    -21.46011138	      0.70988487
      3.74000000	      2.95531066	      5.37734013	    -86.53545443	      0.29200106	      0.87036093	      1.13997034	     -5.04370724	     -8.98894158	    -15.27002382	     36.82564127	      0.64272869	    -23.88185241	      0.00000000	      0.00000000	     14.26944262	      7.15612559	     -3.58552881	      9.47633693	      0.16539328	     -4.89376252	      0.00000000	      0.00000000	      1.65767450	     -3.02056869	     -0.09162440	     -1.85652515	     -5.76405203	      4.93693911	     37.86837542	     89.06704015	    -24.25279110	      3.85059689	     -3.81599612	     -9.62460337	      8.31189610	     37.43533669	     89.23797012	    -21.48083762	      0.76572199
      3.75000000	      2.88196588	      5.46929046	    -86.43705326	      0.29317771	      0.87048665	      1.14317776	     -4.65573736	     -9.06590456	    -15.28309172	     37.49303929	      0.65437698	    -24.45282600	      0.00000000	      0.00000000	     14.05719563	      7.18636045	     -3.42831664	      9.34623010	      0.16312249	     -4.70747480	      0.00000000	      0.00000000	      1.69431022	     -2.92726118	     -0.24045721	     -1.68827970	     -5.74006298	      4.90540721	     38.46710515	     89.07021344	    -24.17076957	      3.81988486	     -3.59564258	     -9.69304445	      8.48244739	     37.54984285	     89.23165082	    -21.50414995	      0.81143323
      3.76000000	      2.80426862	      5.53109062	    -86.29057763	      0.29437554	      0.87065587	      1.14645338	     -4.37580287	     -9.08932292	    -15.26641923	     38.02879857	      0.66372775	    -24.87230681	      0.00000000	      0.00000000	     13.80282586	      7.21472917	     -3.39303572	      9.20316422	      0.16062552	     -4.54317657	      0.00000000	      0.00000000	      1.72943643	     -2.82686939	     -0.50066371	     -1.48333986	     -5.68653228	      4.91486853	     38.97019859	     89.07705601	    -24.11847336	      3.76232784	     -3.43221413	     -9.75859694	      8.59328666	     37.64684556	     89.23290012	    -21.51246111	      0.82673813
      3.77000000	      2.72071571	      5.58679407	    -86.18910765	      0.29547065	      0.87077988	      1.14949195	     -4.03345113	     -9.15207425	    -15.34269191	     38.67285745	      0.67496869	    -25.45134310	      0.00000000	      0.00000000	     13.55784904	      7.23428237	     -3.18788593	      9.06045817	      0.15813483	     -4.33927215	      0.00000000	      0.00000000	      1.71146593	     -2.72503084	     -0.62913699	     -1.34113298	     -5.67371425	      4.94209475	     39.58164003	     89.07828251	    -24.04677834	      3.68986927	     -3.23178625	     -9.81558217	      8.71015046	     37.85533183	     89.22704687	    -21.52780856	      0.82809063
      3.78000000	      2.66576763	      5.69634341	    -86.06877006	      0.29659380	      0.87081774	      1.15257070	     -3.68497239	     -9.24779222	    -15.45282591	     39.22215101	      0.68455567	    -26.14055578	      0.00000000	      0.00000000	     13.39230574	      7.28467267	     -2.83190904	      8.97919447	      0.15671651	     -4.10414097	      0.00000000	      0.00000000	      1.77837142	     -2.67413606	     -0.70735316	     -1.30455906	     -5.64784947	      4.84801967	     40.25556853	     89.07567394	    -23.91941732	      3.65920224	     -3.02332050	     -9.86744653	      8.82715968	     38.08558718	     89.23395426	    -21.57805985	      0.85444611
      3.79000000	      2.57067365	      5.74037198	    -85.91203996	      0.29755507	      0.87097793	      1.15576880	     -3.47678730	     -9.22392623	    -15.51298199	     39.67233895	      0.69241294	    -26.48000387	      0.00000000	      0.00000000	     13.13514762	      7.28068935	     -2.82348178	      8.85621552	      0.15457012	     -3.94635344	      0.00000000	      0.00000000	      1.81871190	     -2.58319614	     -0.93487711	     -1.16319472	     -5.57059874	      4.88053620	     40.70635048	     89.08518395	    -23.86134269	      3.59941042	     -2.89208629	     -9.93486007	      8.89650240	     38.22556926	     89.22488822	    -21.58821249	      0.84473104
